<svg>Earth: floating & Moon: Opacity trigger by scroll</svg>

<svg width="100%" height="100%">
    <g transform="translate(75 40)">
        <g class="layer">
            <g id="earth">
                <motion.path 
                    id="svg_1" 
                    fill="green" 
                    animate={{y:[0, 23, 0]}}
                    transition={{duration:10, repeat: Infinity,}}
                    d="m171.87,232.57c-22,62 142.28,18.54 142.14,63.27c25.86,-29.91 41.5,-68.9 41.5,-111.54c0,-51.07 -22.44,-96.91 -58,-128.18l-0.01,0c0,0 -109.63,3.45 -109.63,51.45s146,10 134,58s-128,5 -150,67z"/>
                <motion.path 
                    id="svg_2" 
                    fill="green"
                    animate={{y:[0, 23, 0]}}
                    transition={{duration:10, repeat: Infinity,}}
                    d="m99.87,271.57c24,-90 -70,-82 -68,-115s70,1 77,-39s-46.75,-51.78 -46.75,-51.78l-0.01,-0.01c-29.64,30.69 -47.88,72.48 -47.88,118.52c0,51.92 23.19,98.42 59.78,129.72c11.92,-11.05 21.19,-24.95 25.86,-42.45z"/>
                <motion.path 
                    id="svg_3" 
                    fill="lightblue"
                    animate={{y:[0, 23, 0]}}
                    transition={{duration:10, repeat: Infinity,}} 
                    d="m120.34,26.28c-22.11,9.04 -41.9,22.59 -58.23,39.5l0.01,0.01c0,0 53.75,11.78 46.75,51.78s-75,6 -77,39s92,25 68,115c-4.67,17.5 -13.94,31.4 -25.86,42.45c15.76,13.49 34.02,24.16 53.98,31.21l0,-0.01c60.13,-42.36 116.72,-1.08 116.72,-1.08l0,0.01c27.01,-10.11 50.78,-26.88 69.3,-48.31c0.14,-44.73 -164.14,-1.27 -142.14,-63.27s138,-19 150,-67s-134,-10 -134,-58s109.63,-51.45 109.63,-51.45c-13.92,-12.25 -29.86,-22.27 -47.25,-29.48l0,0.01c0,0 -54.42,38.37 -129.9,-0.35l-0.01,-0.02z"/>
                <motion.path 
                    id="svg_4" 
                    fill="#333333"
                    animate={{y:[0, 23, 0]}}
                    transition={{duration:10, repeat: Infinity,}}
                    d="m314.01,300.84c0,0 -0.01,0 -0.01,0c-2.76,-0.01 -4.99,-2.26 -4.99,-5.02c0.05,-15.7 -32.8,-17.65 -64.58,-19.54c-4.11,-0.24 -8.24,-0.49 -12.33,-0.77c-2.75,-0.18 -4.83,-2.57 -4.65,-5.32s2.56,-4.83 5.33,-4.65c4.06,0.27 8.16,0.51 12.24,0.76c18.2,1.08 35.38,2.1 48.79,5.54c16.76,4.3 25.24,12.38 25.2,24.01c-0.01,2.76 -2.24,4.99 -5,4.99z"/>
                <motion.path 
                    id="svg_5"
                    fill="#333333"
                    animate={{y:[0, 23, 0]}}
                    transition={{duration:10, repeat: Infinity,}} 
                    d="m217.47,274.3c-0.17,0 -0.34,-0.01 -0.51,-0.03c-3.14,-0.32 -5.99,-0.65 -8.71,-1.03c-2.74,-0.38 -4.65,-2.91 -4.27,-5.64c0.38,-2.74 2.9,-4.65 5.64,-4.27c2.6,0.36 5.34,0.69 8.35,0.99c2.75,0.28 4.75,2.74 4.47,5.48c-0.27,2.58 -2.44,4.5 -4.97,4.5z"/>
                <motion.path 
                    id="svg_6" 
                    fill="#333333"
                    animate={{y:[0, 23, 0]}}
                    transition={{duration:10, repeat: Infinity,}}
                    d="m189.01,268.93c-0.53,0 -1.07,-0.09 -1.6,-0.27c-10.36,-3.51 -17,-8.53 -20.29,-15.34c-3.03,-6.25 -3.02,-13.8 0.04,-22.42c12.75,-35.94 53.34,-39.48 89.15,-42.6c6.31,-0.55 12.26,-1.07 18.05,-1.75c2.74,-0.32 5.22,1.64 5.55,4.38s-1.64,5.23 -4.39,5.55c-5.93,0.7 -11.96,1.22 -18.34,1.78c-34.41,3 -69.99,6.1 -80.6,35.98c-2.16,6.1 -2.31,10.91 -0.47,14.72c2.08,4.27 6.82,7.62 14.51,10.23c2.61,0.89 4.01,3.73 3.13,6.35c-0.71,2.08 -2.65,3.39 -4.74,3.39z"/>
                <motion.path 
                    id="svg_7" 
                    fill="#333333"
                    animate={{y:[0, 23, 0]}}
                    transition={{duration:10, repeat: Infinity,}}
                    d="m305.46,189.26c-1.87,0 -3.67,-1.06 -4.52,-2.86c-1.18,-2.5 -0.11,-5.48 2.39,-6.66c7.61,-3.59 11.97,-8.48 13.69,-15.38c1.35,-5.4 -0.03,-8.14 -1.19,-9.74c-6.89,-9.5 -33.66,-11.41 -57.28,-13.1c-17.56,-1.25 -35.72,-2.55 -49.64,-6.64c-17.28,-5.09 -26.04,-14.28 -26.04,-27.31c0,-52.25 109.8,-56.3 114.48,-56.45l0.15,0c2.76,0 5.01,2.24 5.01,5c0,2.72 -2.18,4.94 -4.89,5c-1.21,0.04 -27.76,1.05 -53.85,7.61c-23.22,5.83 -50.9,17.3 -50.9,38.84c0,19.24 33.75,21.65 66.39,23.98c28.31,2.02 55.04,3.93 64.66,17.2c3.61,4.97 4.55,11.04 2.8,18.03c-2.44,9.77 -8.88,17.17 -19.13,22c-0.69,0.33 -1.41,0.48 -2.13,0.48z"/>
                <motion.path 
                    id="svg_8" 
                    fill="#333333"
                    animate={{y:[0, 23, 0]}}
                    transition={{duration:10, repeat: Infinity,}}
                    d="m74.02,319.02c-1.35,0 -2.69,-0.54 -3.67,-1.6c-1.88,-2.03 -1.76,-5.19 0.26,-7.07c12.11,-11.22 20.33,-24.71 24.43,-40.07c8.44,-31.63 3.04,-52.9 -17.49,-68.98c-2.17,-1.71 -2.55,-4.85 -0.85,-7.02c1.7,-2.18 4.85,-2.56 7.02,-0.86c23.8,18.65 30.47,43.89 20.98,79.44c-4.59,17.21 -13.77,32.3 -27.29,44.82c-0.96,0.9 -2.18,1.34 -3.39,1.34z"/>
                <motion.path 
                    id="svg_9" 
                    fill="#333333"
                    animate={{y:[0, 23, 0]}}
                    transition={{duration:10, repeat: Infinity,}}
                    d="m63.81,191.48c-0.83,0 -1.67,-0.21 -2.44,-0.65c-2.07,-1.15 -4.11,-2.27 -6.11,-3.36c-15.06,-8.22 -29.3,-15.98 -28.38,-31.2c0.56,-9.19 5.37,-15.42 14.31,-18.51c6.96,-2.41 15.53,-2.69 24.59,-2.98c21.9,-0.71 35.4,-2.28 38.17,-18.07c2.51,-14.34 -3.65,-26.34 -18.3,-35.68c-11.67,-7.44 -24.47,-10.33 -24.6,-10.36c-2.7,-0.59 -4.4,-3.26 -3.81,-5.96c0.6,-2.69 3.26,-4.4 5.95,-3.81c0.59,0.13 14.45,3.23 27.61,11.55c18.29,11.57 26.24,27.47 23,45.98c-4.37,24.95 -28.39,25.72 -47.7,26.35c-19.85,0.64 -28.62,1.97 -29.23,12.09c-0.52,8.45 8.47,13.8 23.18,21.82c2.04,1.11 4.12,2.25 6.21,3.43c2.41,1.35 3.27,4.4 1.91,6.8c-0.91,1.64 -2.61,2.56 -4.36,2.56z"/>
                <motion.path 
                    id="svg_10" 
                    fill="#333333"
                    animate={{y:[0, 23, 0]}}
                    transition={{duration:10, repeat: Infinity,}}
                    d="m128,350.22c-1.57,0 -3.12,-0.74 -4.09,-2.12c-1.59,-2.26 -1.05,-5.38 1.2,-6.97c32.75,-23.06 64.49,-22.03 85.36,-17.1c2.69,0.63 4.35,3.32 3.72,6.01c-0.64,2.69 -3.34,4.35 -6.02,3.72c-27.45,-6.48 -53.45,-1.25 -77.3,15.55c-0.87,0.61 -1.88,0.91 -2.87,0.91z"/>
                <motion.path 
                    id="svg_11" 
                    fill="#333333"
                    animate={{y:[0, 23, 0]}}
                    transition={{duration:10, repeat: Infinity,}}
                    d="m244.71,349.14c-1.02,0 -2.05,-0.31 -2.94,-0.96c-0.14,-0.1 -7.62,-5.46 -19.68,-10.11c-2.57,-0.99 -3.86,-3.89 -2.86,-6.46c0.99,-2.58 3.88,-3.86 6.46,-2.87c13.43,5.18 21.63,11.11 21.97,11.36c2.23,1.62 2.72,4.75 1.09,6.98c-0.98,1.35 -2.5,2.06 -4.04,2.06z"/>
                <motion.path 
                    id="svg_12" 
                    fill="#333333"
                    animate={{y:[0, 23, 0]}}
                    transition={{duration:10, repeat: Infinity,}}
                    d="m188.12,48.56c-19.53,0 -43.52,-4.21 -70.05,-17.81l4.57,-8.9c30.08,15.44 60.19,20.26 89.48,14.34c21.9,-4.42 35.13,-13.54 35.26,-13.63l5.75,8.18c-0.59,0.41 -14.73,10.24 -38.51,15.15c-7.45,1.54 -16.37,2.67 -26.5,2.67z"/>
                <motion.path 
                    id="svg_13" 
                    fill="#333333"
                    animate={{y:[0, 23, 0]}}
                    transition={{duration:10, repeat: Infinity,}}
                    d="m184.87,359.94c-20.09,0 -39.78,-3.37 -58.54,-10c-20.38,-7.19 -39.07,-18 -55.57,-32.12c-39.1,-33.45 -61.53,-82.12 -61.53,-133.52c0,-45.76 17.51,-89.09 49.29,-121.99c17.1,-17.71 37.26,-31.39 59.93,-40.66c21.11,-8.62 43.46,-12.99 66.42,-12.99c23.32,0 45.97,4.49 67.3,13.36c17.76,7.36 34.13,17.57 48.64,30.35l-6.61,7.5c-13.69,-12.04 -29.12,-21.67 -45.86,-28.61c-20.12,-8.36 -41.47,-12.6 -63.47,-12.6c-21.66,0 -42.73,4.12 -62.64,12.25c-21.37,8.74 -40.39,21.64 -56.52,38.34c-29.97,31.03 -46.48,71.89 -46.48,115.05c0,48.48 21.15,94.37 58.03,125.92c15.56,13.32 33.19,23.51 52.4,30.29c17.69,6.26 36.26,9.43 55.21,9.43c20.01,0 39.55,-3.52 58.09,-10.47c25.86,-9.68 49.12,-25.9 67.27,-46.9c25.98,-30.05 40.28,-68.5 40.28,-108.27c0,-47.61 -20.52,-92.96 -56.3,-124.43l6.61,-7.51c37.93,33.37 59.69,81.45 59.69,131.94c0,42.17 -15.17,82.95 -42.71,114.81c-19.25,22.26 -43.91,39.46 -71.33,49.72c-19.66,7.37 -40.39,11.11 -61.6,11.11z"/>
            </g>
            <g id="moon">	
                <motion.circle 
                    id="svg_14" 
                    style={{opacity: svg_14}}
                    animate={{y:[0, 23, 0]}}
                    transition={{duration:10, repeat: Infinity}}
                    cx="53.3" cy="53.88" fill="#bfbfbf" r="48.3"/>
                <motion.path 
                    id="svg_15" 
                    opacity="0.47" 
                    enableBackground="new" 
                    animate={{y:[0, 23, 0]}}
                    style={{opacity: svg_15}}
                    transition={{duration:10, repeat: Infinity}}
                    d="m47.87,70.07c0,6.06 4.74,11.01 10.71,11.35c-1.7,-1.98 -2.71,-4.55 -2.71,-7.35c0,-6.28 5.09,-11.37 11.37,-11.37c0.22,0 0.44,0.01 0.66,0.02c-2.07,-2.46 -5.18,-4.02 -8.66,-4.02c-6.28,0 -11.37,5.09 -11.37,11.37z"/>
                <motion.path 
                    id="svg_16" 
                    fill="#333333" 
                    animate={{y:[0, 23, 0]}}
                    style={{opacity: svg_16}}
                    transition={{duration:10, repeat: Infinity}}
                    
                    d="m59.24,86.44c-9.02,0 -16.37,-7.34 -16.37,-16.37s7.35,-16.37 16.37,-16.37s16.37,7.35 16.37,16.37c0,2.76 -2.24,5 -5,5s-5,-2.24 -5,-5c0,-3.51 -2.86,-6.37 -6.37,-6.37s-6.37,2.86 -6.37,6.37s2.86,6.37 6.37,6.37c2.76,0 5,2.24 5,5s-2.24,5 -5,5z"/>
                <motion.path 
                    id="svg_17" 
                    fill="#333333" 
                    style={{opacity: svg_17}}
                    animate={{y:[0, 23, 0]}}
                    transition={{duration:10, repeat: Infinity}}
                    d="m51.64,49.57c-0.33,0 -0.65,-0.03 -0.98,-0.1c-0.32,-0.06 -0.63,-0.16 -0.93,-0.28c-0.3,-0.13 -0.59,-0.28 -0.87,-0.46c-0.27,-0.18 -0.52,-0.39 -0.76,-0.62c-0.93,-0.93 -1.46,-2.22 -1.46,-3.54c0,-0.32 0.03,-0.65 0.1,-0.97c0.06,-0.32 0.16,-0.64 0.28,-0.94c0.13,-0.3 0.28,-0.59 0.46,-0.86c0.18,-0.28 0.39,-0.53 0.62,-0.76c0.24,-0.23 0.49,-0.44 0.76,-0.63c0.28,-0.18 0.57,-0.33 0.87,-0.45c0.3,-0.13 0.61,-0.23 0.93,-0.29c1.63,-0.33 3.35,0.2 4.52,1.37c0.23,0.23 0.43,0.48 0.62,0.76c0.18,0.27 0.33,0.56 0.46,0.86c0.12,0.3 0.22,0.62 0.28,0.94c0.07,0.32 0.1,0.65 0.1,0.97c0,1.32 -0.53,2.61 -1.46,3.54c-0.94,0.93 -2.22,1.46 -3.54,1.46z"/>
                <motion.path 
                    id="svg_18" 
                    fill="#333333" 
                    style={{opacity: svg_18}}
                    animate={{y:[0, 23, 0]}}
                    transition={{duration:10, repeat: Infinity}}
                    d="m48.87,28.57c-1.31,0 -2.6,-0.53 -3.53,-1.46c-0.23,-0.23 -0.44,-0.49 -0.62,-0.76s-0.34,-0.56 -0.46,-0.86c-0.13,-0.31 -0.22,-0.62 -0.29,-0.94c-0.06,-0.32 -0.1,-0.65 -0.1,-0.98c0,-0.32 0.04,-0.65 0.1,-0.97c0.07,-0.32 0.16,-0.64 0.29,-0.94c0.12,-0.3 0.28,-0.59 0.46,-0.86c0.18,-0.28 0.39,-0.53 0.62,-0.76s0.48,-0.44 0.76,-0.62c0.27,-0.18 0.56,-0.34 0.86,-0.46c0.3,-0.13 0.62,-0.22 0.94,-0.29c0.64,-0.13 1.31,-0.13 1.95,0c0.32,0.07 0.63,0.16 0.94,0.29c0.3,0.12 0.59,0.28 0.86,0.46s0.53,0.39 0.76,0.62s0.44,0.48 0.62,0.76c0.18,0.27 0.34,0.56 0.46,0.86c0.13,0.3 0.22,0.62 0.29,0.94c0.06,0.32 0.09,0.65 0.09,0.97c0,1.32 -0.53,2.61 -1.46,3.54c-0.93,0.93 -2.22,1.46 -3.54,1.46z"/>
                <motion.path 
                    id="svg_19" 
                    fill="#333333" 
                    style={{opacity: svg_19}}
                    animate={{y:[0, 23, 0]}}
                    transition={{duration:10, repeat: Infinity}}
                    d="m30.87,43.57c-1.31,0 -2.6,-0.53 -3.53,-1.46s-1.47,-2.22 -1.47,-3.54c0,-1.31 0.54,-2.6 1.47,-3.53c0.93,-0.93 2.22,-1.47 3.53,-1.47c1.32,0 2.61,0.54 3.54,1.47s1.46,2.22 1.46,3.53c0,1.32 -0.53,2.61 -1.46,3.54c-0.93,0.93 -2.22,1.46 -3.54,1.46z"/>
            <g>
                <motion.path 
                    id="svg_20" 
                    fill="#FFFFFF" 
                    animate={{y:[0, 23, 0]}}
                    transition={{duration:10, repeat: Infinity,}}
                    d="m264.61,61.54c-0.91,0 -1.82,-0.25 -2.65,-0.76c-5.9,-3.7 -12.12,-7 -18.47,-9.8c-2.53,-1.12 -3.67,-4.07 -2.56,-6.59c1.12,-2.53 4.07,-3.67 6.6,-2.56c6.79,3 13.43,6.52 19.74,10.47c2.34,1.47 3.05,4.55 1.58,6.9c-0.95,1.51 -2.58,2.34 -4.24,2.34z"/>
                <motion.path 
                    id="svg_21" 
                    fill="#FFFFFF" 
                    animate={{y:[0, 23, 0]}}
                    transition={{duration:10, repeat: Infinity,}}
                    d="m287.71,299.28c-1.34,0 -2.67,-0.53 -3.65,-1.58c-1.89,-2.02 -1.78,-5.18 0.23,-7.07c29.38,-27.48 46.22,-66.24 46.22,-106.33c0,-40.33 -16.17,-77.86 -45.53,-105.69c-2,-1.9 -2.09,-5.06 -0.19,-7.06s5.07,-2.09 7.07,-0.19c31.38,29.73 48.65,69.84 48.65,112.94c0,42.85 -18,84.27 -49.39,113.63c-0.96,0.91 -2.19,1.35 -3.41,1.35z"/>
                <motion.path 
                    id="svg_22" 
                    fill="#FFFFFF" 
                    animate={{y:[0, 23, 0]}}
                    transition={{duration:10, repeat: Infinity,}}
                    d="m266.68,315.75c-1.64,0 -3.24,-0.81 -4.2,-2.28c-1.5,-2.32 -0.85,-5.42 1.47,-6.92c2.55,-1.65 5.08,-3.41 7.52,-5.23c2.22,-1.64 5.35,-1.18 7,1.04c1.65,2.22 1.18,5.35 -1.04,7c-2.61,1.93 -5.31,3.81 -8.04,5.58c-0.84,0.54 -1.78,0.81 -2.71,0.81z"/>
                <motion.path 
                    id="svg_23" 
                    fill="#FFFFFF" 
                    animate={{y:[0, 23, 0]}}
                    style={{opacity: svg_23}}
                    transition={{duration:10, repeat: Infinity}}
                    d="m77.56,83.14c-1.28,0 -2.56,-0.49 -3.53,-1.47c-1.96,-1.95 -1.96,-5.11 0,-7.07c6.88,-6.88 9.88,-16.72 8.03,-26.33c-0.53,-2.71 1.25,-5.33 3.96,-5.85c2.71,-0.53 5.33,1.24 5.86,3.96c2.48,12.86 -1.55,26.06 -10.78,35.29c-0.98,0.98 -2.26,1.47 -3.54,1.47z"/>
                <motion.path 
                    id="svg_24" 
                    fill="#FFFFFF" 
                    animate={{y:[0, 23, 0]}}
                    style={{opacity: svg_24}}
                    transition={{duration:10, repeat: Infinity}}
                    d="m77.56,34.63c-0.32,0 -0.65,-0.04 -0.97,-0.1c-0.32,-0.06 -0.64,-0.16 -0.94,-0.29c-0.3,-0.12 -0.59,-0.28 -0.86,-0.46c-0.28,-0.18 -0.53,-0.39 -0.76,-0.62c-0.93,-0.93 -1.47,-2.21 -1.47,-3.53c0,-0.33 0.03,-0.66 0.1,-0.98c0.06,-0.32 0.16,-0.63 0.29,-0.93c0.12,-0.31 0.27,-0.6 0.46,-0.87c0.18,-0.27 0.39,-0.53 0.62,-0.76s0.48,-0.44 0.76,-0.62c0.27,-0.18 0.56,-0.33 0.86,-0.46c0.3,-0.12 0.62,-0.22 0.94,-0.28c0.64,-0.13 1.3,-0.13 1.95,0c0.32,0.06 0.63,0.16 0.93,0.28c0.31,0.13 0.6,0.28 0.87,0.46c0.27,0.18 0.53,0.39 0.76,0.62c0.23,0.23 0.44,0.49 0.62,0.76s0.33,0.56 0.46,0.87c0.12,0.3 0.22,0.61 0.28,0.93c0.07,0.32 0.1,0.65 0.1,0.98c0,1.32 -0.53,2.6 -1.46,3.53c-0.23,0.23 -0.49,0.44 -0.76,0.62c-0.27,0.18 -0.56,0.34 -0.87,0.46c-0.3,0.13 -0.61,0.23 -0.93,0.29c-0.32,0.06 -0.65,0.1 -0.98,0.1z"/>
                <motion.path 
                    id="svg_25" 
                    fill="#333333" 
                    animate={{y:[0, 23, 0]}}
                    style={{opacity: svg_25}}
                    transition={{duration:10, repeat: Infinity}}
                    d="m53.3,107.19c-29.39,0 -53.3,-23.92 -53.3,-53.31s23.91,-53.3 53.3,-53.3s53.31,23.91 53.31,53.3s-23.91,53.31 -53.31,53.31zm0,-96.61c-23.87,0 -43.3,19.42 -43.3,43.3s19.43,43.31 43.3,43.31s43.31,-19.43 43.31,-43.31s-19.43,-43.3 -43.31,-43.3z"/>
                </g>
            </g>
        </g>
    </g>
</svg>